<svg width="16" height="16" viewBox="0 0 16 16" fill="none" xmlns="http://www.w3.org/2000/svg">
<g clip-path="url(#clip0_291_5014)">
<path d="M0.826743 16C0.615984 16 0.405224 15.9199 0.245095 15.7585C-0.0763681 15.4371 -0.0763681 14.9159 0.245095 14.5944L14.5984 0.241098C14.9199 -0.0803659 15.4411 -0.0803659 15.7625 0.241098C16.084 0.562561 16.084 1.08373 15.7625 1.4054L1.4094 15.7585C1.24806 15.9189 1.0373 16 0.826743 16Z" fill="white"/>
<path d="M15.1811 16C14.9703 16 14.7598 15.9199 14.5994 15.7585L0.245095 1.4054C-0.0763681 1.08373 -0.0763681 0.562561 0.245095 0.241098C0.566559 -0.0803659 1.08773 -0.0803659 1.4094 0.241098L15.7625 14.5944C16.084 14.9159 16.084 15.4371 15.7625 15.7585C15.6012 15.9189 15.3906 16 15.1811 16Z" fill="white"/>
</g>
<defs>
<clipPath id="clip0_291_5014">
<rect width="16" height="16" fill="white"/>
</clipPath>
</defs>
</svg>
