<svg width="216" height="29" viewBox="0 0 216 29" fill="none" xmlns="http://www.w3.org/2000/svg">
<path d="M127.184 7.2V24H125.48V10.56L118.88 21.864H118.04L111.44 10.632V24H109.736V7.2H111.2L118.496 19.656L125.72 7.2H127.184ZM136.714 11.28C138.362 11.28 139.626 11.696 140.506 12.528C141.386 13.344 141.826 14.56 141.826 16.176V24H140.194V22.032C139.81 22.688 139.242 23.2 138.49 23.568C137.754 23.936 136.874 24.12 135.85 24.12C134.442 24.12 133.322 23.784 132.49 23.112C131.658 22.44 131.242 21.552 131.242 20.448C131.242 19.376 131.626 18.512 132.394 17.856C133.178 17.2 134.418 16.872 136.114 16.872H140.122V16.104C140.122 15.016 139.818 14.192 139.21 13.632C138.602 13.056 137.714 12.768 136.546 12.768C135.746 12.768 134.978 12.904 134.242 13.176C133.506 13.432 132.874 13.792 132.346 14.256L131.578 12.984C132.218 12.44 132.986 12.024 133.882 11.736C134.778 11.432 135.722 11.28 136.714 11.28ZM136.114 22.776C137.074 22.776 137.898 22.56 138.586 22.128C139.274 21.68 139.786 21.04 140.122 20.208V18.144H136.162C134.002 18.144 132.922 18.896 132.922 20.4C132.922 21.136 133.202 21.72 133.762 22.152C134.322 22.568 135.106 22.776 136.114 22.776ZM152.886 11.28C154.47 11.28 155.726 11.744 156.654 12.672C157.598 13.584 158.07 14.92 158.07 16.68V24H156.366V16.848C156.366 15.536 156.038 14.536 155.382 13.848C154.726 13.16 153.79 12.816 152.574 12.816C151.214 12.816 150.134 13.224 149.334 14.04C148.55 14.84 148.158 15.952 148.158 17.376V24H146.454V11.376H148.086V13.704C148.55 12.936 149.19 12.344 150.006 11.928C150.838 11.496 151.798 11.28 152.886 11.28ZM167.112 11.28C168.76 11.28 170.024 11.696 170.904 12.528C171.784 13.344 172.224 14.56 172.224 16.176V24H170.592V22.032C170.208 22.688 169.64 23.2 168.888 23.568C168.152 23.936 167.272 24.12 166.248 24.12C164.84 24.12 163.72 23.784 162.888 23.112C162.056 22.44 161.64 21.552 161.64 20.448C161.64 19.376 162.024 18.512 162.792 17.856C163.576 17.2 164.816 16.872 166.512 16.872H170.52V16.104C170.52 15.016 170.216 14.192 169.608 13.632C169 13.056 168.112 12.768 166.944 12.768C166.144 12.768 165.376 12.904 164.64 13.176C163.904 13.432 163.272 13.792 162.744 14.256L161.976 12.984C162.616 12.44 163.384 12.024 164.28 11.736C165.176 11.432 166.12 11.28 167.112 11.28ZM166.512 22.776C167.472 22.776 168.296 22.56 168.984 22.128C169.672 21.68 170.184 21.04 170.52 20.208V18.144H166.56C164.4 18.144 163.32 18.896 163.32 20.4C163.32 21.136 163.6 21.72 164.16 22.152C164.72 22.568 165.504 22.776 166.512 22.776ZM188.587 11.376V22.464C188.587 24.608 188.059 26.192 187.003 27.216C185.963 28.256 184.387 28.776 182.275 28.776C181.107 28.776 179.995 28.6 178.939 28.248C177.899 27.912 177.051 27.44 176.395 26.832L177.259 25.536C177.867 26.08 178.603 26.504 179.467 26.808C180.347 27.112 181.267 27.264 182.227 27.264C183.827 27.264 185.003 26.888 185.755 26.136C186.507 25.4 186.883 24.248 186.883 22.68V21.072C186.355 21.872 185.659 22.48 184.795 22.896C183.947 23.312 183.003 23.52 181.963 23.52C180.779 23.52 179.699 23.264 178.723 22.752C177.763 22.224 177.003 21.496 176.443 20.568C175.899 19.624 175.627 18.56 175.627 17.376C175.627 16.192 175.899 15.136 176.443 14.208C177.003 13.28 177.763 12.56 178.723 12.048C179.683 11.536 180.763 11.28 181.963 11.28C183.035 11.28 184.003 11.496 184.867 11.928C185.731 12.36 186.427 12.984 186.955 13.8V11.376H188.587ZM182.131 22.008C183.043 22.008 183.867 21.816 184.603 21.432C185.339 21.032 185.907 20.48 186.307 19.776C186.723 19.072 186.931 18.272 186.931 17.376C186.931 16.48 186.723 15.688 186.307 15C185.907 14.296 185.339 13.752 184.603 13.368C183.883 12.968 183.059 12.768 182.131 12.768C181.219 12.768 180.395 12.96 179.659 13.344C178.939 13.728 178.371 14.272 177.955 14.976C177.555 15.68 177.355 16.48 177.355 17.376C177.355 18.272 177.555 19.072 177.955 19.776C178.371 20.48 178.939 21.032 179.659 21.432C180.395 21.816 181.219 22.008 182.131 22.008ZM204.345 18.216H193.785C193.881 19.528 194.385 20.592 195.297 21.408C196.209 22.208 197.361 22.608 198.753 22.608C199.537 22.608 200.257 22.472 200.913 22.2C201.569 21.912 202.137 21.496 202.617 20.952L203.577 22.056C203.017 22.728 202.313 23.24 201.465 23.592C200.633 23.944 199.713 24.12 198.705 24.12C197.409 24.12 196.257 23.848 195.249 23.304C194.257 22.744 193.481 21.976 192.921 21C192.361 20.024 192.081 18.92 192.081 17.688C192.081 16.456 192.345 15.352 192.873 14.376C193.417 13.4 194.153 12.64 195.081 12.096C196.025 11.552 197.081 11.28 198.249 11.28C199.417 11.28 200.465 11.552 201.393 12.096C202.321 12.64 203.049 13.4 203.577 14.376C204.105 15.336 204.369 16.44 204.369 17.688L204.345 18.216ZM198.249 12.744C197.033 12.744 196.009 13.136 195.177 13.92C194.361 14.688 193.897 15.696 193.785 16.944H202.737C202.625 15.696 202.153 14.688 201.321 13.92C200.505 13.136 199.481 12.744 198.249 12.744ZM209.469 13.848C209.869 13 210.461 12.36 211.245 11.928C212.045 11.496 213.029 11.28 214.197 11.28V12.936L213.789 12.912C212.461 12.912 211.421 13.32 210.669 14.136C209.917 14.952 209.541 16.096 209.541 17.568V24H207.837V11.376H209.469V13.848Z" fill="#2E2E2E"/>
<path d="M1.992 7.2H9.624C11.448 7.2 13.056 7.552 14.448 8.256C15.856 8.944 16.944 9.92 17.712 11.184C18.496 12.448 18.888 13.92 18.888 15.6C18.888 17.28 18.496 18.752 17.712 20.016C16.944 21.28 15.856 22.264 14.448 22.968C13.056 23.656 11.448 24 9.624 24H1.992V7.2ZM9.432 20.808C11.112 20.808 12.448 20.344 13.44 19.416C14.448 18.472 14.952 17.2 14.952 15.6C14.952 14 14.448 12.736 13.44 11.808C12.448 10.864 11.112 10.392 9.432 10.392H5.88V20.808H9.432ZM26.7641 10.896C28.7641 10.896 30.3001 11.376 31.3721 12.336C32.4441 13.28 32.9801 14.712 32.9801 16.632V24H29.4761V22.392C28.7721 23.592 27.4601 24.192 25.5401 24.192C24.5481 24.192 23.6841 24.024 22.9481 23.688C22.2281 23.352 21.6761 22.888 21.2921 22.296C20.9081 21.704 20.7161 21.032 20.7161 20.28C20.7161 19.08 21.1641 18.136 22.0601 17.448C22.9721 16.76 24.3721 16.416 26.2601 16.416H29.2361C29.2361 15.6 28.9881 14.976 28.4921 14.544C27.9961 14.096 27.2521 13.872 26.2601 13.872C25.5721 13.872 24.8921 13.984 24.2201 14.208C23.5641 14.416 23.0041 14.704 22.5401 15.072L21.1961 12.456C21.9001 11.96 22.7401 11.576 23.7161 11.304C24.7081 11.032 25.7241 10.896 26.7641 10.896ZM26.4761 21.672C27.1161 21.672 27.6841 21.528 28.1801 21.24C28.6761 20.936 29.0281 20.496 29.2361 19.92V18.6H26.6681C25.1321 18.6 24.3641 19.104 24.3641 20.112C24.3641 20.592 24.5481 20.976 24.9161 21.264C25.3001 21.536 25.8201 21.672 26.4761 21.672ZM48.9503 11.088L43.5023 24H39.6383L34.2142 11.088H38.0783L41.6543 19.872L45.3503 11.088H48.9503ZM50.478 11.088H54.222V24H50.478V11.088ZM52.35 9.288C51.662 9.288 51.102 9.088 50.67 8.688C50.238 8.288 50.022 7.792 50.022 7.2C50.022 6.608 50.238 6.112 50.67 5.712C51.102 5.312 51.662 5.112 52.35 5.112C53.038 5.112 53.598 5.304 54.03 5.688C54.462 6.072 54.678 6.552 54.678 7.128C54.678 7.752 54.462 8.272 54.03 8.688C53.598 9.088 53.038 9.288 52.35 9.288ZM70.8488 6.192V24H67.2728V22.512C66.3448 23.632 65.0008 24.192 63.2408 24.192C62.0248 24.192 60.9208 23.92 59.9288 23.376C58.9528 22.832 58.1848 22.056 57.6248 21.048C57.0648 20.04 56.7848 18.872 56.7848 17.544C56.7848 16.216 57.0648 15.048 57.6248 14.04C58.1848 13.032 58.9528 12.256 59.9288 11.712C60.9208 11.168 62.0248 10.896 63.2408 10.896C64.8888 10.896 66.1768 11.416 67.1048 12.456V6.192H70.8488ZM63.8888 21.12C64.8328 21.12 65.6168 20.8 66.2408 20.16C66.8648 19.504 67.1768 18.632 67.1768 17.544C67.1768 16.456 66.8648 15.592 66.2408 14.952C65.6168 14.296 64.8328 13.968 63.8888 13.968C62.9288 13.968 62.1368 14.296 61.5128 14.952C60.8888 15.592 60.5768 16.456 60.5768 17.544C60.5768 18.632 60.8888 19.504 61.5128 20.16C62.1368 20.8 62.9288 21.12 63.8888 21.12Z" fill="#317BE9"/>
<path d="M86.44 15.752H92.728V17.24H86.44V15.752Z" fill="#2E2E2E"/>
</svg>
