<svg width="87" height="116" viewBox="0 0 87 116" fill="none" xmlns="http://www.w3.org/2000/svg">
<path d="M68.5393 63.5328C46.3524 55.6353 53.0367 33.5566 53.0367 33.5566H33.9599C33.9599 33.5566 40.6441 55.6353 18.4601 63.5328" fill="white"/>
<path d="M68.5393 63.5328C46.3524 55.6353 53.0367 33.5566 53.0367 33.5566H33.9599C33.9599 33.5566 40.6441 55.6353 18.4601 63.5328" stroke="#317BE9" stroke-width="1.417" stroke-linecap="round" stroke-linejoin="round"/>
<path d="M64.2167 20.9891C64.2167 31.561 54.9424 50.4195 43.497 50.4195C32.0515 50.4195 22.7772 31.561 22.7772 20.9891C22.7772 15.9135 24.9606 11.0458 28.8463 7.45671C32.7319 3.86766 38.0019 1.85156 43.497 1.85156C48.9921 1.85156 54.2621 3.86766 58.1477 7.45671C62.0333 11.0458 64.2167 15.9135 64.2167 20.9891Z" fill="white" stroke="#317BE9" stroke-width="1.417" stroke-linecap="round" stroke-linejoin="round"/>
<path d="M64.1227 22.2447C64.1227 18.4396 54.8776 15.3555 43.4831 15.3555C32.0885 15.3555 22.8434 18.4396 22.8434 22.2447" fill="white"/>
<path d="M64.1227 22.2447C64.1227 18.4396 54.8776 15.3555 43.4831 15.3555C32.0885 15.3555 22.8434 18.4396 22.8434 22.2447" stroke="#317BE9" stroke-width="1.417" stroke-linecap="round" stroke-linejoin="round"/>
<path d="M84.9958 114.153V79.254C84.9957 75.9349 83.9684 72.6846 82.0358 69.8864C80.1033 67.0881 77.3449 64.858 74.0865 63.4587L68.5393 61.0722C65.5907 60.0563 62.8526 58.5816 60.4422 56.7129L43.4969 72.3647L26.5558 56.7129C24.1457 58.5807 21.4073 60.0553 18.4601 61.0722L12.9102 63.4587C9.65149 64.8585 6.89329 67.0889 4.96078 69.8876C3.02827 72.6864 2.00215 75.937 2.0022 79.2565V114.153" fill="white"/>
<path d="M84.9958 114.153V79.254C84.9957 75.9349 83.9684 72.6846 82.0358 69.8864C80.1033 67.0881 77.3449 64.858 74.0865 63.4587L68.5393 61.0722C65.5907 60.0563 62.8526 58.5816 60.4422 56.7129L43.4969 72.3647L26.5558 56.7129C24.1457 58.5807 21.4073 60.0553 18.4601 61.0722L12.9102 63.4587C9.65149 64.8585 6.89329 67.0889 4.96078 69.8876C3.02827 72.6864 2.00215 75.937 2.0022 79.2565V114.153" stroke="#317BE9" stroke-width="1.417" stroke-linecap="round" stroke-linejoin="round"/>
<path d="M48.4284 39.2417C46.7916 39.9451 44.9872 40.2524 43.1864 40.135C41.3855 40.0176 39.6471 39.4791 38.1334 38.5703" fill="white"/>
<path d="M48.4284 39.2417C46.7916 39.9451 44.9872 40.2524 43.1864 40.135C41.3855 40.0176 39.6471 39.4791 38.1334 38.5703" stroke="#317BE9" stroke-width="1.417" stroke-linecap="round" stroke-linejoin="round"/>
<path d="M30.6147 92.9427C31.0742 92.8544 31.5108 92.6837 31.8987 92.4397C32.2866 92.1957 32.6188 91.8835 32.8761 91.5209C33.1334 91.1583 33.3105 90.7526 33.398 90.3267C33.4855 89.9008 33.4826 89.4631 33.3869 89.0387L31.4969 80.6498C31.231 79.4668 30.7156 78.344 29.9797 77.3451C29.2437 76.3463 28.3027 75.4911 27.2088 74.8285C26.115 74.1659 24.8907 73.7092 23.6055 73.4838C22.3204 73.2584 20.9985 73.2689 19.7178 73.5151C17.1321 74.0124 14.8662 75.4381 13.4182 77.4784C11.9702 79.5187 11.4587 82.0065 11.9962 84.3951L13.8849 92.7859C14.078 93.6425 14.6321 94.3935 15.4242 94.8734C16.2163 95.3533 17.1819 95.5228 18.1094 95.3452" fill="white"/>
<path d="M30.6147 92.9427C31.0742 92.8544 31.5108 92.6837 31.8987 92.4397C32.2866 92.1957 32.6188 91.8835 32.8761 91.5209C33.1334 91.1583 33.3105 90.7526 33.398 90.3267C33.4855 89.9008 33.4826 89.4631 33.3869 89.0387L31.4969 80.6498C31.231 79.4668 30.7156 78.344 29.9797 77.3451C29.2437 76.3463 28.3027 75.4911 27.2088 74.8285C26.115 74.1659 24.8907 73.7092 23.6055 73.4838C22.3204 73.2584 20.9985 73.2689 19.7178 73.5151V73.5151C17.1321 74.0124 14.8662 75.4381 13.4182 77.4784C11.9702 79.5187 11.4587 82.0065 11.9962 84.3951L13.8849 92.7859C14.078 93.6425 14.6321 94.3935 15.4242 94.8734C16.2163 95.3533 17.1819 95.5228 18.1094 95.3452V95.3452" stroke="#317BE9" stroke-width="1.417" stroke-linecap="round" stroke-linejoin="round"/>
<path d="M19.6229 73.517C18.9133 70.3493 18.9511 67.0773 19.7333 63.9242C20.4776 60.888 21.8939 58.0273 23.8944 55.5219C25.8949 53.0166 28.4358 50.9208 31.3564 49.3672" stroke="#317BE9" stroke-width="1.417" stroke-linecap="round" stroke-linejoin="round"/>
<path d="M66.9365 73.517C67.646 70.3493 67.6082 67.0773 66.826 63.9242C66.0813 60.8885 64.6649 58.0285 62.665 55.5232C60.665 53.0179 58.1253 50.9217 55.2057 49.3672" stroke="#317BE9" stroke-width="1.417" stroke-linecap="round" stroke-linejoin="round"/>
<path d="M43.4999 23.2849C48.247 23.2849 52.0953 19.7303 52.0953 15.3456C52.0953 10.9608 48.247 7.40625 43.4999 7.40625C38.7528 7.40625 34.9045 10.9608 34.9045 15.3456C34.9045 19.7303 38.7528 23.2849 43.4999 23.2849Z" fill="white" stroke="#317BE9" stroke-width="1.417" stroke-linecap="round" stroke-linejoin="round"/>
<path d="M43.5001 18.2699C45.249 18.2699 46.6668 16.9604 46.6668 15.3449C46.6668 13.7295 45.249 12.4199 43.5001 12.4199C41.7512 12.4199 40.3334 13.7295 40.3334 15.3449C40.3334 16.9604 41.7512 18.2699 43.5001 18.2699Z" fill="#317BE9"/>
<path d="M43.5 72.3594V86.8199" stroke="#317BE9" stroke-width="1.417" stroke-linecap="round" stroke-linejoin="round"/>
<path d="M65.3446 84.3651C68.2694 84.3651 70.6404 82.1751 70.6404 79.4736C70.6404 76.7721 68.2694 74.582 65.3446 74.582C62.4198 74.582 60.0488 76.7721 60.0488 79.4736C60.0488 82.1751 62.4198 84.3651 65.3446 84.3651Z" fill="white" stroke="#317BE9" stroke-width="1.417" stroke-linecap="round" stroke-linejoin="round"/>
</svg>
