<svg width="120" height="120" viewBox="0 0 120 120" fill="none" xmlns="http://www.w3.org/2000/svg">
<circle cx="60" cy="60" r="60" fill="#F8F8F8"/>
<path d="M76.421 37.2637C79.8174 37.2637 82.7368 40.0017 82.7368 43.5795V76.4216C82.7368 79.8179 80.0027 82.7373 76.421 82.7373H43.5789C40.1826 82.7373 37.2632 79.9898 37.2632 76.4216V43.5795C37.2632 40.1831 39.9796 37.2637 43.5789 37.2637H76.421ZM43.5789 39.79C41.5608 39.79 39.7895 41.4125 39.7895 43.5795V76.4216C39.7895 78.4397 41.3947 80.211 43.5789 80.211H76.421C78.4392 80.211 80.2105 78.5542 80.2105 76.4216V43.5795C80.2105 41.5613 78.547 39.79 76.421 39.79H43.5789ZM71.8281 51.9618C72.2835 52.4172 72.3595 53.2125 71.8281 53.7482L57.5372 68.0392C57.0705 68.5058 56.2714 68.5994 55.7202 68.0075L50.2341 62.1252C49.7583 61.615 49.7862 60.8157 50.2964 60.3399C50.7673 59.9007 51.5634 59.8322 52.0816 60.4021L56.6754 65.3272L70.0418 51.9618C70.5351 51.4685 71.3349 51.4685 71.8281 51.9618Z" fill="#317BE9"/>
</svg>
