<svg width="242" height="51" viewBox="0 0 242 51" fill="none" xmlns="http://www.w3.org/2000/svg">
<path d="M84.28 37L84.256 26.92L79.312 35.224H77.56L72.64 27.136V37H68.992V20.2H72.208L78.496 30.64L84.688 20.2H87.88L87.928 37H84.28ZM104.298 30.592C104.298 30.64 104.274 30.976 104.226 31.6H94.4579C94.6339 32.4 95.0499 33.032 95.7059 33.496C96.3619 33.96 97.1779 34.192 98.1539 34.192C98.8259 34.192 99.4179 34.096 99.9299 33.904C100.458 33.696 100.946 33.376 101.394 32.944L103.386 35.104C102.17 36.496 100.394 37.192 98.0579 37.192C96.6019 37.192 95.3139 36.912 94.1939 36.352C93.0739 35.776 92.2099 34.984 91.6019 33.976C90.9939 32.968 90.6899 31.824 90.6899 30.544C90.6899 29.28 90.9859 28.144 91.5779 27.136C92.1859 26.112 93.0099 25.32 94.0499 24.76C95.1059 24.184 96.2819 23.896 97.5779 23.896C98.8419 23.896 99.9859 24.168 101.01 24.712C102.034 25.256 102.834 26.04 103.41 27.064C104.002 28.072 104.298 29.248 104.298 30.592ZM97.6019 26.728C96.7539 26.728 96.0419 26.968 95.4659 27.448C94.8899 27.928 94.5379 28.584 94.4099 29.416H100.77C100.642 28.6 100.29 27.952 99.7139 27.472C99.1379 26.976 98.4339 26.728 97.6019 26.728ZM119.943 19.192V37H116.367V35.512C115.439 36.632 114.095 37.192 112.335 37.192C111.119 37.192 110.015 36.92 109.023 36.376C108.047 35.832 107.279 35.056 106.719 34.048C106.159 33.04 105.879 31.872 105.879 30.544C105.879 29.216 106.159 28.048 106.719 27.04C107.279 26.032 108.047 25.256 109.023 24.712C110.015 24.168 111.119 23.896 112.335 23.896C113.983 23.896 115.271 24.416 116.199 25.456V19.192H119.943ZM112.983 34.12C113.927 34.12 114.711 33.8 115.335 33.16C115.959 32.504 116.271 31.632 116.271 30.544C116.271 29.456 115.959 28.592 115.335 27.952C114.711 27.296 113.927 26.968 112.983 26.968C112.023 26.968 111.231 27.296 110.607 27.952C109.983 28.592 109.671 29.456 109.671 30.544C109.671 31.632 109.983 32.504 110.607 33.16C111.231 33.8 112.023 34.12 112.983 34.12ZM123.408 24.088H127.152V37H123.408V24.088ZM125.28 22.288C124.592 22.288 124.032 22.088 123.6 21.688C123.168 21.288 122.952 20.792 122.952 20.2C122.952 19.608 123.168 19.112 123.6 18.712C124.032 18.312 124.592 18.112 125.28 18.112C125.968 18.112 126.528 18.304 126.96 18.688C127.392 19.072 127.608 19.552 127.608 20.128C127.608 20.752 127.392 21.272 126.96 21.688C126.528 22.088 125.968 22.288 125.28 22.288ZM136.866 37.192C135.49 37.192 134.25 36.912 133.146 36.352C132.058 35.776 131.202 34.984 130.578 33.976C129.97 32.968 129.666 31.824 129.666 30.544C129.666 29.264 129.97 28.12 130.578 27.112C131.202 26.104 132.058 25.32 133.146 24.76C134.25 24.184 135.49 23.896 136.866 23.896C138.226 23.896 139.41 24.184 140.418 24.76C141.442 25.32 142.186 26.128 142.65 27.184L139.746 28.744C139.074 27.56 138.106 26.968 136.842 26.968C135.866 26.968 135.058 27.288 134.418 27.928C133.778 28.568 133.458 29.44 133.458 30.544C133.458 31.648 133.778 32.52 134.418 33.16C135.058 33.8 135.866 34.12 136.842 34.12C138.122 34.12 139.09 33.528 139.746 32.344L142.65 33.928C142.186 34.952 141.442 35.752 140.418 36.328C139.41 36.904 138.226 37.192 136.866 37.192ZM150.014 23.896C152.014 23.896 153.55 24.376 154.622 25.336C155.694 26.28 156.23 27.712 156.23 29.632V37H152.726V35.392C152.022 36.592 150.71 37.192 148.79 37.192C147.798 37.192 146.934 37.024 146.198 36.688C145.478 36.352 144.926 35.888 144.542 35.296C144.158 34.704 143.966 34.032 143.966 33.28C143.966 32.08 144.414 31.136 145.31 30.448C146.222 29.76 147.622 29.416 149.51 29.416H152.486C152.486 28.6 152.238 27.976 151.742 27.544C151.246 27.096 150.502 26.872 149.51 26.872C148.822 26.872 148.142 26.984 147.47 27.208C146.814 27.416 146.254 27.704 145.79 28.072L144.446 25.456C145.15 24.96 145.99 24.576 146.966 24.304C147.958 24.032 148.974 23.896 150.014 23.896ZM149.726 34.672C150.366 34.672 150.934 34.528 151.43 34.24C151.926 33.936 152.278 33.496 152.486 32.92V31.6H149.918C148.382 31.6 147.614 32.104 147.614 33.112C147.614 33.592 147.798 33.976 148.166 34.264C148.55 34.536 149.07 34.672 149.726 34.672ZM159.619 19.192H163.363V37H159.619V19.192ZM181.938 37.288C180.226 37.288 178.674 36.92 177.282 36.184C175.906 35.432 174.818 34.4 174.018 33.088C173.234 31.76 172.842 30.264 172.842 28.6C172.842 26.936 173.234 25.448 174.018 24.136C174.818 22.808 175.906 21.776 177.282 21.04C178.674 20.288 180.234 19.912 181.962 19.912C183.418 19.912 184.73 20.168 185.898 20.68C187.082 21.192 188.074 21.928 188.874 22.888L186.378 25.192C185.242 23.88 183.834 23.224 182.154 23.224C181.114 23.224 180.186 23.456 179.37 23.92C178.554 24.368 177.914 25 177.45 25.816C177.002 26.632 176.778 27.56 176.778 28.6C176.778 29.64 177.002 30.568 177.45 31.384C177.914 32.2 178.554 32.84 179.37 33.304C180.186 33.752 181.114 33.976 182.154 33.976C183.834 33.976 185.242 33.312 186.378 31.984L188.874 34.288C188.074 35.264 187.082 36.008 185.898 36.52C184.714 37.032 183.394 37.288 181.938 37.288ZM191.048 19.192H194.792V37H191.048V19.192ZM198.267 24.088H202.011V37H198.267V24.088ZM200.139 22.288C199.451 22.288 198.891 22.088 198.459 21.688C198.027 21.288 197.811 20.792 197.811 20.2C197.811 19.608 198.027 19.112 198.459 18.712C198.891 18.312 199.451 18.112 200.139 18.112C200.827 18.112 201.387 18.304 201.819 18.688C202.251 19.072 202.467 19.552 202.467 20.128C202.467 20.752 202.251 21.272 201.819 21.688C201.387 22.088 200.827 22.288 200.139 22.288ZM213.334 23.896C214.934 23.896 216.222 24.376 217.198 25.336C218.19 26.296 218.686 27.72 218.686 29.608V37H214.942V30.184C214.942 29.16 214.718 28.4 214.27 27.904C213.822 27.392 213.174 27.136 212.326 27.136C211.382 27.136 210.63 27.432 210.07 28.024C209.51 28.6 209.23 29.464 209.23 30.616V37H205.486V24.088H209.062V25.6C209.558 25.056 210.174 24.64 210.91 24.352C211.646 24.048 212.454 23.896 213.334 23.896ZM222.08 24.088H225.824V37H222.08V24.088ZM223.952 22.288C223.264 22.288 222.704 22.088 222.272 21.688C221.84 21.288 221.624 20.792 221.624 20.2C221.624 19.608 221.84 19.112 222.272 18.712C222.704 18.312 223.264 18.112 223.952 18.112C224.64 18.112 225.2 18.304 225.632 18.688C226.064 19.072 226.28 19.552 226.28 20.128C226.28 20.752 226.064 21.272 225.632 21.688C225.2 22.088 224.64 22.288 223.952 22.288ZM235.538 37.192C234.162 37.192 232.922 36.912 231.818 36.352C230.73 35.776 229.874 34.984 229.25 33.976C228.642 32.968 228.338 31.824 228.338 30.544C228.338 29.264 228.642 28.12 229.25 27.112C229.874 26.104 230.73 25.32 231.818 24.76C232.922 24.184 234.162 23.896 235.538 23.896C236.898 23.896 238.082 24.184 239.09 24.76C240.114 25.32 240.858 26.128 241.322 27.184L238.418 28.744C237.746 27.56 236.778 26.968 235.514 26.968C234.538 26.968 233.73 27.288 233.09 27.928C232.45 28.568 232.13 29.44 232.13 30.544C232.13 31.648 232.45 32.52 233.09 33.16C233.73 33.8 234.538 34.12 235.514 34.12C236.794 34.12 237.762 33.528 238.418 32.344L241.322 33.928C240.858 34.952 240.114 35.752 239.09 36.328C238.082 36.904 236.898 37.192 235.538 37.192Z" fill="#2E2E2E"/>
<g clip-path="url(#clip0_297_5340)">
<path d="M17.3897 49.2941H29.4242C31.7342 49.2941 33.6047 47.4344 33.6047 45.1379V37.5762C33.6047 35.2797 35.4753 33.42 37.7853 33.42H45.3857C47.6957 33.42 49.5662 31.5604 49.5662 29.2639V21.4501C49.5662 19.1536 47.6957 17.2939 45.3857 17.2939H37.7909C35.4809 17.2939 33.6104 15.4343 33.6104 13.1378V5.57607C33.6104 3.27955 31.7398 1.41992 29.4299 1.41992H21.5702C19.2603 1.41992 17.3897 3.27955 17.3897 5.57607V13.1322C17.3897 15.4287 15.5192 17.2883 13.2092 17.2883H5.60313C3.29314 17.2883 1.42261 19.148 1.42261 21.4445V29.936C1.42261 31.8517 2.98889 33.4088 4.91577 33.4088" stroke="#2E2E2E" stroke-width="3" stroke-miterlimit="10"/>
<path d="M17.7277 49.1608C25.824 42.288 28.4946 37.5885 29.3791 35.18C29.7172 34.3902 29.9031 33.522 29.9031 32.609C29.9031 28.9514 26.9226 25.9883 23.2436 25.9883C20.7195 25.9883 18.5222 27.383 17.3953 29.4443C16.2685 27.3886 14.0712 25.9883 11.5471 25.9883C7.86803 25.9883 4.88757 28.9514 4.88757 32.609C4.88757 32.8442 4.89884 33.0739 4.92138 33.3036" stroke="#317BE9" stroke-width="3" stroke-miterlimit="10" stroke-linecap="round" stroke-linejoin="round"/>
</g>
<defs>
<clipPath id="clip0_297_5340">
<rect width="51" height="51" fill="white"/>
</clipPath>
</defs>
</svg>
