<svg width="196" height="40" viewBox="0 0 196 40" fill="none" xmlns="http://www.w3.org/2000/svg">
<path d="M32.2841 16.7472C31.5734 16.1748 30.6934 15.8622 29.7862 15.8596C28.6914 15.8481 27.6364 16.2786 26.8541 17.0564C26.0719 17.8343 25.6259 18.8957 25.6143 20.0073C25.6089 20.558 25.7106 21.1044 25.9132 21.6153C26.1157 22.1261 26.4153 22.5915 26.795 22.9848C27.1747 23.3781 27.6272 23.6916 28.1263 23.9074C28.6253 24.1232 29.1609 24.2369 29.7033 24.2423C30.7987 24.2535 31.8539 23.8228 32.6366 23.0446C33.4193 22.2663 33.8658 21.2043 33.8776 20.0921C33.8831 19.4477 33.7421 18.8107 33.466 18.2303C33.1898 17.65 32.786 17.1421 32.2853 16.7459" fill="#317BE9"/>
<path d="M11.9749 22.123L9.0788 25.0612C8.04229 26.1222 6.70215 26.8232 5.24963 27.0645L14.0435 35.9992C14.6447 36.6035 15.4167 37.0023 16.2517 37.1403C16.8148 37.2507 17.3956 37.2238 17.9464 37.0617C18.6469 36.8841 19.2884 36.5209 19.8052 36.0091C20.3221 35.4973 20.696 34.8551 20.8883 34.1486C21.0806 33.4421 21.0845 32.6964 20.8999 31.9877C20.7153 31.2791 20.3488 30.633 19.8375 30.1154L11.9749 22.123Z" fill="#317BE9"/>
<path d="M6.97532 22.9256L9.86655 19.9877L11.9748 17.8522L18.1573 11.5718L19.813 9.88898C20.5785 9.10896 21.0083 8.05283 21.0083 6.95171C21.0083 5.85059 20.5785 4.79447 19.813 4.01444C19.0296 3.25817 17.9976 2.82408 16.9169 2.79688C16.2554 2.80599 15.6055 2.97615 15.0221 3.29282C14.8755 3.36825 14.7338 3.45289 14.5977 3.54636C14.3943 3.688 14.203 3.84666 14.0256 4.02063L1.19772 17.0498C0.530136 17.7312 0.118538 18.6285 0.0347607 19.5859C0.0164546 19.7183 0.00499252 19.8516 0 19.9852C0 20.0715 0.0187293 20.1589 0.026223 20.2388C0.0816993 21.2452 0.499931 22.1958 1.20138 22.9092C1.24509 22.9561 1.29003 22.9828 1.33249 23.0259C1.86256 23.525 2.51487 23.871 3.22116 24.0277C3.88778 24.1599 4.57539 24.1295 5.22813 23.9388C5.88087 23.7481 6.47989 23.4026 6.97532 22.9309" fill="#317BE9"/>
<path d="M60.3966 27.376H60.6101C61.2276 27.3493 61.8438 27.451 62.4213 27.6748C62.9988 27.8985 63.5254 28.2396 63.9685 28.6772C64.1525 28.858 64.399 28.9582 64.6551 28.9561C64.7836 28.9562 64.9107 28.93 65.029 28.879C65.1472 28.828 65.2545 28.7535 65.3436 28.6595L65.9431 28.0255C66.1141 27.8448 66.2096 27.604 66.2096 27.3534C66.2096 27.1029 66.1141 26.862 65.9431 26.6813C65.2434 25.967 64.4062 25.4068 63.4836 25.0359C62.5611 24.665 61.5731 24.4914 60.5814 24.5257C58.5889 24.4591 56.6514 25.1987 55.196 26.582C53.7405 27.9652 52.8865 29.8787 52.8206 31.9017V32.2491C52.7936 34.2727 53.5589 36.2245 54.949 37.675C56.339 39.1256 58.2395 39.9561 60.2326 39.9842H60.6076C61.6005 40.0141 62.5884 39.8369 63.5111 39.4635C64.4338 39.0901 65.2715 38.5286 65.9718 37.8134C66.1453 37.6323 66.2425 37.3894 66.2425 37.1367C66.2425 36.884 66.1453 36.6414 65.9718 36.4603L65.3711 35.8262C65.2852 35.7341 65.1821 35.6602 65.068 35.6086C64.9539 35.557 64.8312 35.5288 64.7064 35.5256C64.5815 35.5225 64.457 35.5443 64.3405 35.59C64.2239 35.6358 64.1173 35.7045 64.027 35.7922L64.0136 35.8049C63.5715 36.2445 63.0455 36.5879 62.4683 36.8144C61.8911 37.0409 61.2748 37.1456 60.6564 37.1221C59.3942 37.1649 58.1668 36.6976 57.2438 35.8225C56.3207 34.9474 55.7769 33.7361 55.7326 32.4546V32.2364C55.7205 30.9603 56.2056 29.7311 57.0822 28.8165C57.9587 27.9019 59.1558 27.3761 60.4125 27.3534" fill="#317BE9"/>
<path d="M83.4379 24.5339H83.0982C82.1099 24.4991 81.1245 24.6624 80.1984 25.0143C79.2723 25.3662 78.4235 25.8999 77.7005 26.5848C76.9775 27.2698 76.3948 28.0926 75.985 29.0063C75.5753 29.92 75.3466 30.9068 75.3124 31.9102V32.26C75.2894 34.2855 76.0587 36.2374 77.4517 37.6875C78.8447 39.1376 80.7471 39.9677 82.742 39.9951H83.0896C85.0858 40.0642 87.0271 39.3259 88.4873 37.9423C89.9475 36.5587 90.807 34.6429 90.8766 32.6163V32.2727C90.9 30.2465 90.13 28.2936 88.7361 26.8433C87.3423 25.393 85.4384 24.5637 83.4427 24.5376L83.4379 24.5339ZM83.3128 37.1547H83.1006C82.484 37.1825 81.8683 37.0866 81.2882 36.8727C80.708 36.6588 80.175 36.3308 79.7197 35.9077C79.2644 35.4847 78.8954 34.9747 78.6342 34.4069C78.373 33.8391 78.2248 33.2247 78.1975 32.5987V32.2702C78.165 31.0054 78.6284 29.7793 79.4861 28.8615C80.3438 27.9436 81.5256 27.409 82.7713 27.3755H83.0957C84.3536 27.3362 85.575 27.8059 86.4919 28.681C87.4089 29.556 87.9463 30.765 87.9854 32.0421V32.26C87.9953 32.8932 87.8821 33.5222 87.6524 34.111C87.4227 34.6998 87.0811 35.2368 86.6468 35.6913C86.2125 36.1459 85.6943 36.5093 85.1216 36.7603C84.549 37.0114 83.9329 37.1455 83.3092 37.1547H83.3128Z" fill="#317BE9"/>
<path d="M110.996 34.6939C111.798 34.2425 112.462 33.5743 112.913 32.7637C113.364 31.9531 113.586 31.0316 113.553 30.101C113.553 26.7813 111.1 24.6484 107.308 24.6484H102.616C102.363 24.6484 102.121 24.7502 101.942 24.9314C101.763 25.1126 101.663 25.3582 101.663 25.6146V38.9367C101.661 39.0637 101.684 39.1899 101.73 39.3078C101.777 39.4258 101.846 39.5331 101.933 39.6239C102.021 39.7148 102.125 39.7871 102.24 39.8369C102.355 39.8867 102.479 39.9132 102.604 39.9143H103.568C103.693 39.9146 103.818 39.8899 103.933 39.8416C104.049 39.7932 104.154 39.7222 104.242 39.6326C104.331 39.543 104.401 39.4365 104.449 39.3193C104.497 39.2021 104.522 39.0763 104.522 38.9494V35.561H107.312C107.588 35.561 107.854 35.5471 108.137 35.523L110.94 39.5122C111.028 39.6386 111.145 39.7418 111.281 39.8125C111.417 39.8831 111.568 39.9192 111.721 39.918H112.808C112.985 39.9189 113.158 39.8701 113.309 39.7772C113.46 39.6842 113.583 39.5508 113.664 39.3914C113.744 39.2321 113.78 39.0532 113.767 38.8744C113.754 38.6957 113.692 38.5242 113.589 38.3788L110.996 34.6939ZM107.304 32.7399H104.523V27.456H107.314C110.665 27.456 110.665 29.4441 110.665 30.092C110.665 30.74 110.665 32.7436 107.31 32.7436L107.304 32.7399Z" fill="#317BE9"/>
<path d="M133.484 24.6406H123.086C122.832 24.6406 122.588 24.7425 122.408 24.9236C122.227 25.1047 122.125 25.3507 122.122 25.6084V26.4808C122.121 26.6095 122.146 26.737 122.194 26.856C122.243 26.975 122.314 27.0831 122.403 27.1742C122.493 27.2653 122.599 27.3374 122.716 27.3866C122.833 27.4358 122.959 27.461 123.086 27.4609H126.853V38.9289C126.851 39.0559 126.874 39.182 126.92 39.3C126.966 39.4181 127.035 39.5259 127.122 39.6167C127.21 39.7076 127.314 39.78 127.429 39.8297C127.544 39.8795 127.668 39.9055 127.793 39.9065H128.759C128.883 39.9065 129.007 39.8816 129.122 39.8331C129.237 39.7846 129.342 39.7135 129.431 39.6239C129.519 39.5343 129.589 39.428 129.637 39.3109C129.684 39.1938 129.709 39.0683 129.709 38.9415V27.4773H133.471C133.596 27.4774 133.719 27.4526 133.835 27.4042C133.95 27.3558 134.055 27.2849 134.143 27.1953C134.232 27.1056 134.302 26.9991 134.35 26.882C134.398 26.7648 134.423 26.6392 134.423 26.5123V25.6412C134.423 25.3848 134.322 25.139 134.144 24.9576C133.966 24.7762 133.723 24.6741 133.471 24.6737L133.484 24.6406Z" fill="#317BE9"/>
<path d="M146.184 24.6446H145.23C145.105 24.6429 144.981 24.6663 144.865 24.7133C144.749 24.7604 144.643 24.83 144.553 24.9186C144.464 25.0072 144.393 25.1128 144.344 25.2294C144.294 25.346 144.268 25.4713 144.267 25.5981V38.9366C144.268 39.1955 144.37 39.4431 144.55 39.6263C144.73 39.8095 144.975 39.9135 145.23 39.9154H146.184C146.436 39.9144 146.678 39.8122 146.856 39.6313C147.034 39.4503 147.134 39.2052 147.135 38.9493V25.626C147.135 25.3694 147.036 25.1233 146.857 24.9415C146.679 24.7597 146.437 24.6571 146.184 24.6561V24.6446Z" fill="#317BE9"/>
<path d="M170.439 35.8528C170.349 35.7599 170.242 35.6864 170.123 35.6361C170.005 35.5858 169.878 35.5598 169.75 35.5599C169.625 35.559 169.501 35.5832 169.385 35.6311C169.269 35.679 169.163 35.7495 169.074 35.8388C168.634 36.2783 168.109 36.6218 167.533 36.8484C166.957 37.0749 166.341 37.1798 165.724 37.1564C164.462 37.2009 163.233 36.7344 162.31 35.8596C161.386 34.9847 160.842 33.7732 160.798 32.4914V32.2731C160.79 31.6382 160.906 31.0081 161.138 30.4184C161.37 29.8288 161.714 29.2913 162.151 28.8368C162.588 28.3823 163.109 28.0196 163.683 27.7694C164.258 27.5192 164.876 27.3865 165.501 27.3787H165.716C166.333 27.3515 166.95 27.4526 167.527 27.6759C168.105 27.8992 168.631 28.2398 169.074 28.6771C169.253 28.8578 169.495 28.9594 169.748 28.9594C170 28.9594 170.242 28.8578 170.421 28.6771L170.437 28.6607L171.038 28.0267C171.212 27.8456 171.309 27.6029 171.309 27.3502C171.309 27.0975 171.212 26.8546 171.038 26.6735C170.337 25.9591 169.498 25.3993 168.574 25.0284C167.65 24.6575 166.66 24.4837 165.667 24.5179C164.681 24.4852 163.698 24.6502 162.774 25.0033C161.85 25.3565 161.004 25.8908 160.284 26.576C159.563 27.2612 158.983 28.0837 158.576 28.9966C158.168 29.9095 157.942 30.8951 157.91 31.8967V32.2403C157.884 34.2642 158.652 36.2156 160.042 37.666C161.433 39.1163 163.333 39.9467 165.326 39.9751H165.684C166.678 40.0071 167.668 39.8311 168.591 39.4578C169.515 39.0845 170.353 38.5221 171.054 37.8056C171.227 37.6233 171.322 37.3797 171.32 37.1267C171.318 36.8737 171.218 36.6317 171.042 36.4527L170.439 35.8528Z" fill="#317BE9"/>
<path d="M188.558 24.5298H188.221C186.225 24.4607 184.283 25.1994 182.823 26.5833C181.363 27.9672 180.504 29.8831 180.435 31.9099V32.2547C180.412 34.2817 181.182 36.2351 182.576 37.6856C183.971 39.1361 185.876 39.9648 187.872 39.9895H188.221C190.216 40.0583 192.156 39.3195 193.615 37.9358C195.074 36.552 195.932 34.6368 196 32.611V32.2649C196.023 30.2394 195.253 28.287 193.86 26.8368C192.467 25.3866 190.564 24.5569 188.569 24.5298H188.558ZM188.433 37.1532H188.22C186.973 37.2078 185.756 36.7575 184.836 35.9015C183.916 35.0456 183.369 33.8538 183.314 32.5881V32.2584C183.283 30.994 183.747 29.7689 184.605 28.8515C185.462 27.9342 186.643 27.3998 187.889 27.3653H188.214C189.471 27.328 190.69 27.798 191.606 28.6723C192.521 29.5466 193.057 30.7538 193.097 32.029V32.247C193.116 33.5245 192.636 34.7579 191.76 35.6756C190.884 36.5932 189.686 37.1201 188.427 37.1405L188.433 37.1532Z" fill="#317BE9"/>
<path d="M63.1674 2.02218C63.6237 2.45263 63.9876 2.97396 64.2365 3.55365C64.4853 4.13335 64.6134 4.75894 64.6134 5.39131C64.6134 6.02367 64.4853 6.64926 64.2365 7.22896C63.9876 7.80865 63.6237 8.32998 63.1674 8.76043C62.0298 9.63252 60.6236 10.0659 59.2004 9.98295H55.9933V13.9746H54.14V0.80368H59.1956C60.62 0.717871 62.0282 1.14979 63.1674 2.02218ZM61.8331 7.58373C62.1258 7.30112 62.3593 6.961 62.5186 6.58411C62.6778 6.20722 62.7594 5.80141 62.7594 5.39131C62.7594 4.9812 62.6778 4.5754 62.5186 4.1985C62.3593 3.82161 62.1258 3.4815 61.8331 3.19888C61.0495 2.64023 60.1008 2.37184 59.1456 2.43825H55.9945V8.34715H59.1456C60.1007 8.41191 61.0486 8.14244 61.8319 7.58373H61.8331Z" fill="#317BE9"/>
<path d="M72.1421 13.4261C71.3799 13.0039 70.7476 12.3757 70.315 11.6114C69.8831 10.8055 69.6564 9.90294 69.6564 8.98552C69.6564 8.0681 69.8831 7.16522 70.315 6.35938C70.745 5.59495 71.3781 4.96872 72.1421 4.55238C72.9506 4.11108 73.8569 3.8876 74.7747 3.90319C75.6895 3.88673 76.593 4.11031 77.3976 4.55238C78.1575 4.9709 78.787 5.59684 79.215 6.35938C79.6468 7.16522 79.873 8.0681 79.873 8.98552C79.873 9.90294 79.6468 10.8055 79.215 11.6114C78.7846 12.374 78.1558 13.0019 77.3976 13.4261C76.595 13.8743 75.6907 14.1017 74.7747 14.0855C73.8557 14.1008 72.9486 13.8736 72.1421 13.4261ZM76.4707 12.063C76.9694 11.769 77.3775 11.3389 77.6477 10.8216C77.929 10.2508 78.0752 9.62104 78.0752 8.98274C78.0752 8.34443 77.929 7.71497 77.6477 7.14416C77.3795 6.627 76.9708 6.19863 76.4707 5.90925C75.9488 5.62642 75.3664 5.47832 74.7747 5.47832C74.1831 5.47832 73.6007 5.62642 73.0788 5.90925C72.5768 6.19956 72.1654 6.62745 71.892 7.14416C71.6048 7.71317 71.4554 8.34334 71.4554 8.98274C71.4554 9.62214 71.6048 10.2526 71.892 10.8216C72.1673 11.3385 72.5782 11.7681 73.0788 12.063C73.5988 12.3518 74.182 12.5029 74.7747 12.5029C75.3675 12.5029 75.9506 12.3518 76.4707 12.063Z" fill="#317BE9"/>
<path d="M100.449 4.00391L96.7813 13.9794H95.075L92.2374 6.4118L89.3651 13.9794H87.6576L84.0046 4.00391H85.6921L88.5467 11.9455L91.5148 4.00391H93.0131L95.9269 11.9848L98.856 4.00391H100.449Z" fill="#317BE9"/>
<path d="M114.335 9.58769H106.364C106.407 9.99977 106.529 10.3993 106.725 10.7628C106.921 11.1264 107.186 11.4466 107.505 11.7052C108.193 12.2529 109.051 12.536 109.925 12.5042C110.455 12.5255 110.984 12.4289 111.474 12.2213C111.964 12.0136 112.403 11.7 112.761 11.3021L113.744 12.4686C113.295 12.9987 112.726 13.411 112.086 13.6707C111.284 13.9797 110.429 14.1184 109.573 14.0778C108.716 14.0372 107.877 13.8183 107.108 13.4348C106.326 13.0264 105.679 12.396 105.245 11.6204C104.799 10.8165 104.572 9.90648 104.587 8.98401C104.575 8.07043 104.794 7.16908 105.225 6.36685C105.634 5.60706 106.245 4.97869 106.987 4.55241C107.759 4.11219 108.632 3.88818 109.518 3.90323C110.397 3.88637 111.264 4.11061 112.028 4.55241C112.761 4.97948 113.36 5.60849 113.755 6.36685C114.181 7.19062 114.396 8.10999 114.38 9.04005C114.375 9.22334 114.36 9.40606 114.335 9.58769ZM107.376 6.21856C106.795 6.756 106.434 7.49555 106.364 8.29056H112.667C112.593 7.50021 112.234 6.76584 111.658 6.22877C111.06 5.7135 110.302 5.42983 109.518 5.42821C108.734 5.42658 107.974 5.70701 107.375 6.2198L107.376 6.21856Z" fill="#317BE9"/>
<path d="M123.441 4.35258C124.132 4.03441 124.886 3.88048 125.644 3.90245V5.65218C125.509 5.63753 125.373 5.63131 125.236 5.6333C124.819 5.60934 124.401 5.6748 124.011 5.82555C123.62 5.9763 123.265 6.20888 122.969 6.50816C122.38 7.19596 122.082 8.09263 122.142 9.00243V13.9718H120.361V3.99625H122.067V5.66859C122.375 5.09254 122.856 4.63162 123.441 4.35258Z" fill="#317BE9"/>
<path d="M140.105 9.58765H132.133C132.176 9.99951 132.299 10.3988 132.495 10.7622C132.691 11.1256 132.955 11.4459 133.273 11.7052C133.962 12.2523 134.819 12.5354 135.694 12.5042C136.224 12.5255 136.753 12.4289 137.243 12.2212C137.733 12.0136 138.172 11.7 138.53 11.3021L139.513 12.4686C139.063 12.9988 138.493 13.4111 137.853 13.6707C137.052 13.9798 136.196 14.1183 135.34 14.0778C134.484 14.0372 133.645 13.8183 132.875 13.4348C132.095 13.0256 131.448 12.3954 131.014 11.6203C130.567 10.8167 130.34 9.90662 130.355 8.98398C130.342 8.07018 130.562 7.16862 130.994 6.36681C131.404 5.60699 132.014 4.9786 132.756 4.55238C133.528 4.11215 134.401 3.88814 135.286 3.9032C136.166 3.88667 137.034 4.11089 137.798 4.55238C138.53 4.97968 139.128 5.60873 139.522 6.36681C139.947 7.19059 140.162 8.10995 140.146 9.04001C140.142 9.22321 140.128 9.40591 140.105 9.58765ZM133.143 6.21852C132.564 6.75715 132.203 7.49614 132.133 8.29053H138.437C138.363 7.49984 138.003 6.76507 137.426 6.22874C136.829 5.71371 136.07 5.43011 135.286 5.42848C134.502 5.42686 133.743 5.70721 133.143 6.21976V6.21852Z" fill="#317BE9"/>
<path d="M155.402 0.0078125V13.9753H153.696V12.394C153.31 12.9373 152.795 13.3714 152.197 13.6555C151.571 13.9477 150.888 14.0951 150.199 14.0868C149.306 14.1033 148.425 13.8849 147.64 13.4528C146.895 13.0346 146.282 12.4118 145.87 11.656C145.451 10.8347 145.232 9.92325 145.232 8.99825C145.232 8.07324 145.451 7.16183 145.87 6.34053C146.284 5.58863 146.897 4.96913 147.64 4.55241C148.425 4.12058 149.306 3.90217 150.199 3.91839C150.87 3.90997 151.535 4.04803 152.148 4.32301C152.735 4.58693 153.245 4.99785 153.632 5.51736V0.0217435L155.402 0.0078125ZM152.03 12.0643C152.533 11.7723 152.945 11.342 153.219 10.8229C153.5 10.252 153.646 9.62255 153.646 8.98431C153.646 8.34608 153.5 7.71635 153.219 7.14543C152.947 6.62645 152.534 6.19787 152.03 5.91052C151.509 5.6276 150.928 5.47959 150.338 5.47959C149.748 5.47959 149.166 5.6276 148.646 5.91052C148.145 6.20131 147.735 6.62914 147.462 7.14543C147.174 7.71398 147.023 8.34464 147.023 8.98431C147.023 9.624 147.174 10.2543 147.462 10.8229C147.737 11.3394 148.147 11.7689 148.646 12.0643C149.165 12.3531 149.746 12.5045 150.338 12.5045C150.929 12.5045 151.511 12.3531 152.03 12.0643Z" fill="#317BE9"/>
<path d="M178.575 4.5446C179.319 4.95986 179.933 5.57938 180.346 6.3324C180.767 7.15298 180.988 8.06468 180.988 8.99013C180.988 9.91557 180.767 10.8273 180.346 11.6478C179.935 12.4049 179.321 13.028 178.575 13.4446C177.791 13.8777 176.909 14.0962 176.017 14.0786C175.327 14.0867 174.645 13.9396 174.019 13.6477C173.422 13.3634 172.906 12.929 172.52 12.3859V13.9672H170.814V0H172.594V5.49562C172.98 4.97544 173.491 4.56406 174.077 4.30096C174.69 4.02622 175.355 3.88847 176.025 3.89665C176.916 3.88496 177.794 4.10821 178.575 4.5446ZM177.564 12.0639C178.065 11.768 178.476 11.3387 178.752 10.8225C179.039 10.2533 179.188 9.62319 179.188 8.98393C179.188 8.34468 179.039 7.7143 178.752 7.14504C178.478 6.62906 178.066 6.20145 177.564 5.91014C177.045 5.62722 176.464 5.47921 175.874 5.47921C175.284 5.47921 174.703 5.62722 174.184 5.91014C173.678 6.19662 173.265 6.62542 172.994 7.14504C172.714 7.71623 172.569 8.34585 172.569 8.98393C172.569 9.62201 172.714 10.2513 172.994 10.8225C173.267 11.3424 173.679 11.773 174.184 12.0639C174.702 12.3527 175.283 12.5041 175.874 12.5041C176.465 12.5041 177.046 12.3527 177.564 12.0639Z" fill="#317BE9"/>
<path d="M195.39 4.00391L190.627 14.9775C190.335 15.814 189.826 16.5547 189.153 17.1216C188.559 17.5458 187.847 17.7641 187.121 17.7442C186.645 17.7445 186.172 17.6648 185.721 17.5083C185.299 17.3699 184.914 17.1343 184.597 16.8198L185.356 15.4669C185.588 15.7007 185.862 15.8857 186.164 16.0115C186.466 16.1373 186.79 16.2012 187.116 16.1997C187.506 16.2144 187.889 16.0922 188.2 15.8536C188.556 15.5267 188.828 15.1163 188.991 14.658L189.305 13.9618L184.966 4.00514H186.82L190.25 11.986L193.643 4.00514L195.39 4.00391Z" fill="#317BE9"/>
</svg>
