<svg width="48" height="48" viewBox="0 0 48 48" fill="none" xmlns="http://www.w3.org/2000/svg">
<g clip-path="url(#clip0_258_4482)">
<path d="M16.3667 46.394H27.6933C29.8674 46.394 31.6279 44.6437 31.6279 42.4823V35.3654C31.6279 33.2039 33.3884 31.4537 35.5625 31.4537H42.7159C44.89 31.4537 46.6505 29.7035 46.6505 27.542V20.1879C46.6505 18.0264 44.89 16.2762 42.7159 16.2762H35.5678C33.3937 16.2762 31.6332 14.526 31.6332 12.3645V5.24761C31.6332 3.08617 29.8727 1.33594 27.6986 1.33594H20.3013C18.1272 1.33594 16.3667 3.08617 16.3667 5.24761V12.3593C16.3667 14.5207 14.6062 16.2709 12.4321 16.2709H5.27348C3.09937 16.2709 1.33887 18.0212 1.33887 20.1826V28.1746C1.33887 29.9776 2.81302 31.4431 4.62655 31.4431" stroke="#2E2E2E" stroke-width="3" stroke-miterlimit="10"/>
<path d="M16.6848 46.2664C24.3048 39.7979 26.8183 35.3749 27.6508 33.108C27.969 32.3647 28.144 31.5476 28.144 30.6883C28.144 27.2458 25.3389 24.457 21.8762 24.457C19.5006 24.457 17.4325 25.7697 16.372 27.7097C15.3114 25.775 13.2434 24.457 10.8678 24.457C7.40511 24.457 4.59998 27.2458 4.59998 30.6883C4.59998 30.9097 4.61058 31.1258 4.63179 31.342" stroke="#317BE9" stroke-width="3" stroke-miterlimit="10" stroke-linecap="round" stroke-linejoin="round"/>
</g>
<defs>
<clipPath id="clip0_258_4482">
<rect width="48" height="48" fill="white"/>
</clipPath>
</defs>
</svg>
