<svg width="120" height="120" viewBox="0 0 120 120" fill="none" xmlns="http://www.w3.org/2000/svg">
<circle cx="60" cy="60" r="60" fill="#F8F8F8"/>
<path d="M80.4844 37.7344H39.5156C37.5771 37.7344 36 39.3114 36 41.25V72.1875C36 74.1261 37.5771 75.7031 39.5156 75.7031H54.521L53.6747 78.6651C53.3348 79.8546 52.0027 80.8594 50.7656 80.8594H45.4688C45.0804 80.8594 44.7656 81.1741 44.7656 81.5625C44.7656 81.9509 45.0804 82.2656 45.4688 82.2656H74.5312C74.9196 82.2656 75.2344 81.9509 75.2344 81.5625C75.2344 81.1741 74.9196 80.8594 74.5312 80.8594H69.2344C67.9973 80.8594 66.6652 79.8545 66.3253 78.6651L65.479 75.7031H80.4844C82.4229 75.7031 84 74.1261 84 72.1875V41.25C84 39.3114 82.4229 37.7344 80.4844 37.7344ZM39.5156 39.1406H80.4844C81.6475 39.1406 82.5938 40.0869 82.5938 41.25V65.8594H37.4062V41.25C37.4062 40.0869 38.3525 39.1406 39.5156 39.1406ZM64.9732 79.0514C65.1661 79.7269 65.5496 80.3474 66.0524 80.8594H53.9476C54.4504 80.3474 54.8339 79.7268 55.0268 79.0514L55.9835 75.7031H64.0164L64.9732 79.0514ZM80.4844 74.2969H39.5156C38.3525 74.2969 37.4062 73.3506 37.4062 72.1875V67.2656H82.5938V72.1875C82.5938 73.3506 81.6475 74.2969 80.4844 74.2969Z" fill="#317BE9"/>
<path d="M39.5156 64.4531H80.4844C80.8727 64.4531 81.1875 64.1384 81.1875 63.75V41.25C81.1875 40.8616 80.8727 40.5469 80.4844 40.5469H39.5156C39.1273 40.5469 38.8125 40.8616 38.8125 41.25V51.0938C38.8125 51.4822 39.1273 51.7969 39.5156 51.7969C39.9039 51.7969 40.2188 51.4822 40.2188 51.0938V41.9531H79.7812V63.0469H40.2188V53.9062C40.2188 53.5178 39.9039 53.2031 39.5156 53.2031C39.1273 53.2031 38.8125 53.5178 38.8125 53.9062V63.75C38.8125 64.1384 39.1273 64.4531 39.5156 64.4531Z" fill="#317BE9"/>
<path d="M60 68.6719C58.8368 68.6719 57.8906 69.6182 57.8906 70.7812C57.8906 71.9443 58.8368 72.8906 60 72.8906C61.1632 72.8906 62.1094 71.9443 62.1094 70.7812C62.1094 69.6182 61.1632 68.6719 60 68.6719ZM60 71.4844C59.6122 71.4844 59.2969 71.169 59.2969 70.7812C59.2969 70.3935 59.6122 70.0781 60 70.0781C60.3877 70.0781 60.7031 70.3935 60.7031 70.7812C60.7031 71.169 60.3877 71.4844 60 71.4844Z" fill="#317BE9"/>
</svg>
