<svg width="120" height="120" viewBox="0 0 120 120" fill="none" xmlns="http://www.w3.org/2000/svg">
<circle cx="60" cy="60" r="60" fill="#F8F8F8"/>
<g clip-path="url(#clip0_258_2577)">
<path d="M49.4244 56.5289L53.8073 51.2561C54.0555 50.9574 54.0147 50.5141 53.716 50.2659C53.4175 50.0177 52.974 50.0586 52.7258 50.3572L48.9689 54.877L48.1477 53.5431C47.9442 53.2124 47.5111 53.1092 47.1803 53.3129C46.8496 53.5166 46.7466 53.9497 46.9501 54.2803L48.2848 56.448C48.5371 56.8577 49.1171 56.8987 49.4244 56.5289Z" fill="#317BE9"/>
<path d="M46.9504 63.5616L48.285 65.7294C48.5372 66.1391 49.1171 66.1801 49.4245 65.8102L53.8074 60.5373C54.0556 60.2387 54.0147 59.7954 53.7161 59.5472C53.4176 59.299 52.9741 59.3398 52.7259 59.6385L48.9689 64.1583L48.1478 62.8244C47.9442 62.4937 47.5112 62.3905 47.1804 62.5942C46.8498 62.7979 46.7468 63.2311 46.9504 63.5616Z" fill="#317BE9"/>
<path d="M46.9504 72.9054L48.285 75.0732C48.5372 75.4829 49.1171 75.5238 49.4245 75.154L53.8074 69.8811C54.0556 69.5824 54.0147 69.1392 53.7161 68.8909C53.4176 68.6428 52.9741 68.6835 52.7259 68.9822L48.9689 73.502L48.1478 72.1681C47.9442 71.8375 47.5112 71.7343 47.1804 71.938C46.8498 72.1417 46.7468 72.5748 46.9504 72.9054Z" fill="#317BE9"/>
<path d="M78.0469 75.6945C77.6586 75.6945 77.3438 76.0093 77.3438 76.3977V81.5159C77.3438 82.1104 76.8601 82.5941 76.2656 82.5941H43.7344C43.1399 82.5941 42.6562 82.1104 42.6562 81.5159V50.7012C42.6562 50.3128 42.3414 49.998 41.9531 49.998C41.5648 49.998 41.25 50.3128 41.25 50.7012V81.5159C41.25 82.8858 42.3645 84.0003 43.7344 84.0003H76.2656C77.6355 84.0003 78.75 82.8858 78.75 81.5159V76.3977C78.75 76.0093 78.4352 75.6945 78.0469 75.6945Z" fill="#317BE9"/>
<path d="M76.2656 41.4179H72.8261V38.5125C72.8261 37.1272 71.6991 36 70.3136 36C68.9282 36 67.8011 37.1271 67.8011 38.5125V41.4179H62.5125V38.5125C62.5125 37.1271 61.3853 36 60 36C58.6147 36 57.4875 37.1271 57.4875 38.5125V41.4179H52.1988V38.5125C52.1988 37.1272 51.0717 36 49.6863 36C48.3009 36 47.1738 37.1271 47.1738 38.5125V41.4179H43.7344C42.3645 41.4179 41.25 42.5324 41.25 43.9023V47.4196C41.25 47.808 41.5648 48.1227 41.9531 48.1227C42.3414 48.1227 42.6562 47.808 42.6562 47.4196V43.9023C42.6562 43.3078 43.1399 42.8242 43.7344 42.8242H47.1738V43.9406C47.1738 45.326 48.3008 46.4531 49.6863 46.4531C51.0717 46.4531 52.1988 45.3261 52.1988 43.9406V42.8242H57.4875V43.9406C57.4875 45.326 58.6146 46.4531 60 46.4531C61.3854 46.4531 62.5125 45.3261 62.5125 43.9406V42.8242H67.8012V43.9406C67.8012 45.326 68.9283 46.4531 70.3137 46.4531C71.6991 46.4531 72.8262 45.3261 72.8262 43.9406V42.8242H76.2656C76.8601 42.8242 77.3438 43.3078 77.3438 43.9023V73.1161C77.3438 73.5045 77.6586 73.8192 78.0469 73.8192C78.4352 73.8192 78.75 73.5045 78.75 73.1161V43.9023C78.75 42.5324 77.6355 41.4179 76.2656 41.4179ZM50.7926 43.9406C50.7926 44.5507 50.2964 45.0469 49.6864 45.0469C49.0764 45.0469 48.5801 44.5507 48.5801 43.9406C48.5801 42.4418 48.5801 38.9816 48.5801 38.5125C48.5801 37.9025 49.0763 37.4062 49.6864 37.4062C50.2964 37.4062 50.7926 37.9025 50.7926 38.5125V43.9406ZM61.1062 43.9406C61.1062 44.5507 60.61 45.0469 60 45.0469C59.39 45.0469 58.8937 44.5507 58.8937 43.9406C58.8937 42.4418 58.8937 38.9816 58.8937 38.5125C58.8937 37.9025 59.39 37.4062 60 37.4062C60.61 37.4062 61.1062 37.9025 61.1062 38.5125V43.9406ZM71.42 43.9406C71.42 44.5507 70.9237 45.0469 70.3137 45.0469C69.7037 45.0469 69.2075 44.5507 69.2075 43.9406C69.2075 42.4418 69.2075 38.9816 69.2075 38.5125C69.2075 37.9025 69.7037 37.4062 70.3137 37.4062C70.9237 37.4062 71.42 37.9025 71.42 38.5125V43.9406Z" fill="#317BE9"/>
<path d="M56.788 57.1113H71.6005C72.8153 57.1113 73.8037 56.123 73.8037 54.9082C73.8037 53.6934 72.8153 52.7051 71.6005 52.7051H56.788C55.5732 52.7051 54.5849 53.6934 54.5849 54.9082C54.5849 56.123 55.5732 57.1113 56.788 57.1113ZM56.788 54.1113H71.6005C72.0399 54.1113 72.3974 54.4688 72.3974 54.9082C72.3974 55.3476 72.0399 55.7051 71.6005 55.7051H56.788C56.3486 55.7051 55.9911 55.3476 55.9911 54.9082C55.9911 54.4688 56.3486 54.1113 56.788 54.1113Z" fill="#317BE9"/>
<path d="M56.788 66.4121H71.6005C72.8153 66.4121 73.8037 65.4238 73.8037 64.209C73.8037 62.9942 72.8153 62.0059 71.6005 62.0059H56.788C55.5732 62.0059 54.5849 62.9942 54.5849 64.209C54.5849 65.4238 55.5732 66.4121 56.788 66.4121ZM56.788 63.4121H71.6005C72.0399 63.4121 72.3974 63.7696 72.3974 64.209C72.3974 64.6484 72.0399 65.0059 71.6005 65.0059H56.788C56.3486 65.0059 55.9911 64.6484 55.9911 64.209C55.9911 63.7696 56.3486 63.4121 56.788 63.4121Z" fill="#317BE9"/>
<path d="M56.788 75.7129H71.6005C72.8153 75.7129 73.8037 74.7246 73.8037 73.5098C73.8037 72.295 72.8153 71.3066 71.6005 71.3066H56.788C55.5732 71.3066 54.5849 72.295 54.5849 73.5098C54.5849 74.7246 55.5732 75.7129 56.788 75.7129ZM56.788 72.7129H71.6005C72.0399 72.7129 72.3974 73.0704 72.3974 73.5098C72.3974 73.9492 72.0399 74.3066 71.6005 74.3066H56.788C56.3486 74.3066 55.9911 73.9492 55.9911 73.5098C55.9911 73.0704 56.3486 72.7129 56.788 72.7129Z" fill="#317BE9"/>
</g>
<defs>
<clipPath id="clip0_258_2577">
<rect width="48" height="48" fill="white" transform="translate(36 36)"/>
</clipPath>
</defs>
</svg>
