<svg width="120" height="120" viewBox="0 0 120 120" fill="none" xmlns="http://www.w3.org/2000/svg">
<circle cx="60" cy="60" r="60" fill="#F8F8F8"/>
<path d="M83.966 85.3509L81.5718 70.7878C81.3137 69.2188 80.2424 67.9583 78.7756 67.4986L72.3179 65.4742C72.1841 63.8341 71.5369 62.2868 70.4598 61.062C69.5982 60.0824 68.5145 59.369 67.3199 58.9754C67.5244 58.7397 67.7139 58.5048 67.8878 58.2751C69.4235 56.2459 70.2456 54.0103 70.4549 52.4847H70.9531C72.2488 52.4847 73.303 51.3895 73.303 50.0432V48.7916C73.303 47.8931 72.8166 47.079 72.085 46.6565V43.6469C72.085 43.1921 71.7301 42.8234 71.2924 42.8234C70.8547 42.8234 70.4999 43.192 70.4999 43.6469V47.0255C70.1913 47.0812 69.823 47.1774 69.4463 47.3423C69.4077 47.3569 69.3702 47.3738 69.3347 47.3941C69.2496 47.4344 69.1644 47.4769 69.0795 47.5248V40.889C69.0795 39.0557 67.644 37.5643 65.8795 37.5643H63.6919C62.9374 37.5643 62.2003 37.8374 61.6162 38.3336L61.4015 38.5159C61.0073 38.8509 60.5096 39.0354 60.0002 39.0354C59.4908 39.0354 58.9931 38.8509 58.5988 38.5159L58.3842 38.3336C57.8001 37.8375 57.063 37.5643 56.3085 37.5643H54.1207C52.3562 37.5643 50.9207 39.0557 50.9207 40.889V47.5248C50.8358 47.4769 50.7506 47.4344 50.6655 47.3941C50.63 47.3738 50.5926 47.3569 50.554 47.3423C50.1773 47.1774 49.8089 47.0812 49.5004 47.0255V38.4824C49.5004 35.8161 51.5882 33.6468 54.1545 33.6468H65.8456C68.412 33.6468 70.4997 35.8161 70.4997 38.4824V39.7768C70.4997 40.2316 70.8546 40.6002 71.2922 40.6002C71.7298 40.6002 72.0848 40.2317 72.0848 39.7768V38.4824C72.0848 34.908 69.2858 32 65.8456 32H54.1545C50.7142 32 47.9153 34.908 47.9153 38.4824V46.6566C47.1837 47.0791 46.6973 47.8931 46.6973 48.7917V50.0433C46.6973 51.3896 47.7515 52.4848 49.0472 52.4848H49.5454C49.7546 54.0104 50.5769 56.246 52.1125 58.2752C52.2862 58.5047 52.4756 58.7394 52.6799 58.9749C49.9337 59.8812 47.931 62.4464 47.6825 65.4742L41.2245 67.4986C39.7577 67.9583 38.6863 69.2188 38.4283 70.7878L37.4561 76.7018C37.3824 77.1501 37.6725 77.5754 38.1038 77.652C38.5351 77.7287 38.9447 77.4273 39.0185 76.979L39.9908 71.065C40.1468 70.1157 40.795 69.3533 41.6824 69.0752L47.6552 67.2028V68.8316C46.2861 69.0935 45.1211 70.0706 44.6413 71.4244C44.514 71.7837 44.4348 72.16 44.406 72.5426L43.8288 80.2408C43.7852 80.8206 43.9784 81.3981 44.3584 81.8248C44.7384 82.2515 45.2774 82.4964 45.8371 82.4964H46.8252C47.2629 82.4964 47.6178 82.1279 47.6178 81.673C47.6178 81.2181 47.2629 80.8496 46.8252 80.8496H45.8371C45.7177 80.8496 45.6029 80.7976 45.5219 80.7064C45.4409 80.6155 45.3998 80.4925 45.4091 80.3689L45.9863 72.6707C46.0038 72.4388 46.0517 72.2109 46.1288 71.9934C46.4626 71.0516 47.3641 70.4139 48.3722 70.4065L48.5027 70.4055C48.5089 70.4054 48.5149 70.4054 48.5209 70.4054C49.5007 70.4054 50.368 70.9827 50.7338 71.88C50.8365 72.1316 50.8988 72.3976 50.9193 72.6707L51.4968 80.369C51.506 80.4925 51.4649 80.6155 51.3839 80.7065C51.3029 80.7975 51.188 80.8496 51.0687 80.8496H50.0806C49.6429 80.8496 49.288 81.2182 49.288 81.673C49.288 82.1278 49.6429 82.4964 50.0806 82.4964H51.0687C51.6284 82.4964 52.1675 82.2516 52.5474 81.8248C52.9275 81.3979 53.1206 80.8205 53.0771 80.2409L52.4996 72.5426C52.4658 72.0921 52.3627 71.6529 52.1933 71.2374C51.6712 69.9572 50.5549 69.0671 49.2401 68.8263V66.706L51.9646 65.8519C52.2124 66.3943 52.7036 67.5665 53.6766 70.0932C54.6573 72.6427 55.8761 75.9105 57.0451 79.0873C57.0535 79.114 57.0631 79.14 57.0739 79.1655C57.854 81.2863 58.6107 83.3635 59.258 85.1554C59.374 85.4767 59.6697 85.6896 60 85.6896C60.3303 85.6896 60.626 85.4767 60.742 85.1554C61.3892 83.3635 62.1459 81.2863 62.9261 79.1655C62.937 79.14 62.9465 79.1138 62.9549 79.0873C64.123 75.9123 65.3412 72.6466 66.3214 70.0979C67.2957 67.5679 67.7874 66.3947 68.0353 65.8519L70.7598 66.706V71.5696C68.8721 71.9505 67.4422 73.6803 67.4422 75.7513C67.4422 78.1006 69.2818 80.012 71.543 80.012C73.8043 80.012 75.6438 78.1007 75.6438 75.7513C75.6438 73.6871 74.2234 71.9615 72.3448 71.5731V67.2029L78.3177 69.0753C79.2051 69.3534 79.8532 70.1158 80.0093 71.0651L82.4035 85.6282C82.4433 85.8697 82.3815 86.1058 82.2293 86.2931C82.0773 86.4802 81.8637 86.5835 81.6279 86.5835H38.3721C38.1363 86.5835 37.9228 86.4803 37.7707 86.2931C37.6186 86.1058 37.5567 85.8698 37.5965 85.6282L38.3866 80.8221C38.4603 80.3738 38.1702 79.9484 37.7388 79.8719C37.3076 79.795 36.898 80.0967 36.8242 80.5449L36.034 85.351C35.9162 86.0684 36.1076 86.7988 36.5592 87.3551C37.011 87.9112 37.6717 88.2302 38.3721 88.2302H81.6279C82.3283 88.2302 82.9892 87.9112 83.4408 87.355C83.8924 86.7987 84.0838 86.0683 83.966 85.3509ZM70.5092 48.7031C70.9315 48.5937 71.2705 48.5957 71.2743 48.5958C71.4109 48.5977 71.5437 48.5645 71.6616 48.5003C71.6969 48.5915 71.7178 48.6896 71.7178 48.7917V50.0433C71.7178 50.4815 71.3747 50.838 70.9529 50.838H70.5092V48.7031ZM49.4907 50.838H49.0471C48.6253 50.838 48.2822 50.4815 48.2822 50.0433V48.7917C48.2822 48.6896 48.3032 48.5915 48.3384 48.5004C48.4562 48.5646 48.589 48.5978 48.7257 48.5958C48.7317 48.5969 49.0697 48.5949 49.4907 48.7035V50.838ZM51.0758 51.7613V49.598C51.3159 49.6727 51.5786 49.6625 51.8211 49.5574C52.2371 49.3771 52.5058 48.9583 52.5058 48.4904V40.889C52.5058 39.9638 53.2303 39.2111 54.1207 39.2111H56.3083C56.6981 39.2111 57.079 39.3522 57.3807 39.6085L57.5953 39.7908C58.2719 40.3657 59.1259 40.6821 60 40.6821C60.8741 40.6821 61.7281 40.3656 62.4047 39.7908L62.6193 39.6085C62.9209 39.3522 63.3019 39.2111 63.6917 39.2111H65.8793C66.7697 39.2111 67.4942 39.9638 67.4942 40.889V48.4905C67.4942 48.9583 67.7629 49.3772 68.1789 49.5575C68.3178 49.6177 68.4632 49.6469 68.6074 49.6469C68.7149 49.6469 68.8216 49.6306 68.9242 49.5987V51.7613C68.9242 52.9635 68.1242 55.2982 66.6416 57.2572C66.1505 57.9062 65.5193 58.6033 64.742 59.2127C64.7174 59.2298 64.6938 59.2483 64.6713 59.2681C63.4672 60.1931 61.919 60.9016 60 60.9016C58.081 60.9016 56.5328 60.1931 55.3286 59.268C55.3061 59.2483 55.2826 59.2298 55.2581 59.2128C54.4808 58.6033 53.8496 57.9062 53.3584 57.2572C51.8759 55.2983 51.0758 52.9635 51.0758 51.7613ZM65.1922 65.0649L60 69.097L54.8078 65.0649C55.3227 64.3849 55.6111 63.5122 55.6111 62.7333V61.406C56.8321 62.0882 58.2891 62.5486 60 62.5486C61.7109 62.5486 63.168 62.0882 64.3888 61.406V62.7333C64.3888 63.5122 64.6773 64.3849 65.1922 65.0649ZM53.4851 64.1457C53.0619 63.9783 52.5926 63.9508 52.1488 64.0759C52.1293 64.0806 52.1103 64.086 52.0918 64.0917L49.3538 64.9501C49.8168 62.5843 51.6658 60.7012 54.0261 60.3365V62.7333C54.0261 63.2499 53.8041 63.784 53.4851 64.1457ZM55.6361 70.7559C55.6346 70.752 55.6331 70.7482 55.6318 70.7444C55.5916 70.6389 55.552 70.5348 55.5126 70.4319C55.5055 70.4132 55.4985 70.3947 55.4914 70.3762C55.4529 70.2755 55.4147 70.1756 55.3771 70.0773C55.3745 70.0703 55.3718 70.0635 55.3692 70.0565C55.2518 69.7498 55.1385 69.4555 55.0297 69.1736C55.0217 69.1532 55.0138 69.1324 55.0059 69.1121C54.9746 69.0313 54.9438 68.9517 54.9133 68.873C54.9021 68.8442 54.891 68.8156 54.8799 68.787C54.8503 68.7108 54.8209 68.635 54.7919 68.5609C54.7833 68.5387 54.7748 68.5172 54.7663 68.4951C54.7137 68.3605 54.6623 68.2292 54.6122 68.1013C54.5987 68.0667 54.5849 68.0315 54.5714 67.9973C54.5518 67.9474 54.5326 67.8989 54.5134 67.85C54.4927 67.7973 54.472 67.745 54.4517 67.6936C54.4441 67.6744 54.4361 67.6541 54.4285 67.635C54.4224 67.6196 54.4168 67.6054 54.4108 67.5902C54.3192 67.3591 54.2322 67.1413 54.1497 66.9365C54.149 66.9349 54.1483 66.9332 54.1477 66.9316C54.1037 66.8225 54.0607 66.716 54.0193 66.6145C53.9979 66.5619 53.9767 66.5102 53.956 66.4594L58.4215 69.927L56.5556 70.7506C56.5523 70.752 56.549 70.7535 56.5457 70.755L55.7666 71.0989C55.7225 70.9828 55.6792 70.869 55.6361 70.7559ZM57.5271 75.7977C57.3706 75.3756 57.2129 74.9512 57.0549 74.5271C56.8077 73.8639 56.5717 73.2333 56.3458 72.6325L56.6416 72.502L57.85 73.9614L57.5271 75.7977ZM60.0153 82.4902C59.9926 82.4412 59.9655 82.395 59.9343 82.3519C59.5761 81.3684 59.1216 80.124 58.6185 78.7548L59.3585 74.5458H60.6415L61.3815 78.7548C60.8543 80.1892 60.3809 81.4863 60.0153 82.4902ZM60.9388 72.8991H59.0612L58.1728 71.8261L60 71.0197L61.8272 71.8261L60.9388 72.8991ZM62.9451 74.5271C62.7871 74.9512 62.6294 75.3756 62.4729 75.7977L62.15 73.9613L63.3584 72.5019L63.6542 72.6324C63.4283 73.2332 63.1923 73.8639 62.9451 74.5271ZM65.9808 66.6145C65.9415 66.7107 65.9007 66.8116 65.8592 66.9146C65.8538 66.928 65.8483 66.9416 65.8429 66.9551C65.8018 67.0572 65.7599 67.1615 65.7166 67.2701C65.7138 67.2773 65.7108 67.2849 65.7079 67.2921C65.6705 67.3858 65.6321 67.4824 65.5931 67.581C65.5858 67.5994 65.579 67.6164 65.5717 67.635C65.563 67.6571 65.5537 67.6805 65.5449 67.7027C65.5276 67.7467 65.51 67.7915 65.4922 67.8363C65.4704 67.8915 65.4487 67.9466 65.4264 68.0031C65.4194 68.0211 65.4121 68.0399 65.4049 68.058C65.3497 68.1985 65.293 68.3432 65.2351 68.4919C65.226 68.5152 65.217 68.5381 65.208 68.5617C65.1793 68.6352 65.1501 68.7102 65.1209 68.7856C65.1094 68.8152 65.0979 68.8446 65.0864 68.8745C65.0562 68.9523 65.0256 69.0312 64.9948 69.1111C64.9861 69.1334 64.9773 69.1563 64.9686 69.1787C64.8611 69.4568 64.7496 69.7468 64.6339 70.049C64.6301 70.059 64.6263 70.0688 64.6225 70.0789C64.585 70.1765 64.5472 70.2758 64.5089 70.3759C64.5019 70.3945 64.4947 70.4132 64.4875 70.432C64.4479 70.5354 64.4081 70.64 64.3677 70.7462C64.367 70.7482 64.3662 70.7502 64.3655 70.752C64.3219 70.8665 64.2782 70.9816 64.2336 71.0991L63.4538 70.7549C63.451 70.7537 63.4483 70.7525 63.4456 70.7513L61.5787 69.9272L66.0442 66.4596C66.0233 66.5102 66.0021 66.5618 65.9808 66.6145ZM67.9082 64.0918C67.9081 64.0918 67.9079 64.0917 67.9078 64.0917C67.9071 64.0915 67.9064 64.0914 67.9057 64.0911C67.4459 63.9477 66.9555 63.9715 66.515 64.1457C66.1959 63.784 65.974 63.2499 65.974 62.7333V60.3353C68.3491 60.699 70.1925 62.5644 70.6495 64.9511L67.9082 64.0918ZM74.0588 75.7513C74.0588 77.1927 72.9302 78.3652 71.543 78.3652C70.1559 78.3652 69.0273 77.1927 69.0273 75.7513C69.0273 74.31 70.1559 73.1375 71.543 73.1375C72.9302 73.1375 74.0588 74.31 74.0588 75.7513Z" fill="#317BE9"/>
</svg>
