<svg width="69" height="52" viewBox="0 0 69 52" fill="none" xmlns="http://www.w3.org/2000/svg">
<g opacity="0.3" clip-path="url(#clip0_258_2740)">
<path d="M28.0044 1.08203H2.02148C0.90493 1.08203 0 1.99133 0 3.11328V29.2217C0 30.3437 0.90493 31.253 2.02148 31.253H12.9912V48.8032C12.9912 49.9246 13.8961 50.8344 15.0127 50.8344H21.5088C22.379 50.8344 23.1513 50.2748 23.4261 49.4454L29.9217 29.8639C29.9906 29.6571 30.0259 29.4402 30.0259 29.2217V3.11328C30.0259 1.99133 29.121 1.08203 28.0044 1.08203V1.08203Z" fill="#317BE9"/>
<path d="M66.9785 1.08203H40.9956C39.8791 1.08203 38.9741 1.99133 38.9741 3.11328V29.2217C38.9741 30.3437 39.8791 31.253 40.9956 31.253H51.9658V48.8032C51.9658 49.9246 52.8708 50.8344 53.9873 50.8344H60.4829C61.3531 50.8344 62.1254 50.2748 62.4007 49.4454L68.8963 29.8639C68.9647 29.6571 69 29.4402 69 29.2217V3.11328C69 1.99133 68.0951 1.08203 66.9785 1.08203V1.08203Z" fill="#317BE9"/>
</g>
<defs>
<clipPath id="clip0_258_2740">
<rect width="69" height="52" fill="white"/>
</clipPath>
</defs>
</svg>
